<svg width="34" height="34" viewBox="0 0 23 22" fill="none" xmlns="http://www.w3.org/2000/svg">
<path fill-rule="evenodd" clip-rule="evenodd" d="M11.4999 0C5.14952 0 0 5.04925 0 11.2785C0 16.2618 3.29507 20.4893 7.86434 21.9808C8.43887 22.0854 8.64988 21.7361 8.64988 21.4382C8.64988 21.1693 8.63921 20.2808 8.63426 19.3384C5.43498 20.0207 4.75989 18.0077 4.75989 18.0077C4.23677 16.7041 3.48303 16.3574 3.48303 16.3574C2.43945 15.6574 3.56168 15.672 3.56168 15.672C4.71628 15.7514 5.32452 16.8342 5.32452 16.8342C6.3502 18.5581 8.01478 18.0598 8.67101 17.7718C8.77423 17.0429 9.07226 16.5451 9.40114 16.2635C6.84685 15.9787 4.16155 15.0114 4.16155 10.6898C4.16155 9.45844 4.61097 8.45233 5.34661 7.6623C5.22702 7.37842 4.8334 6.2313 5.45783 4.67777C5.45783 4.67777 6.42333 4.37464 8.62093 5.83385C9.53844 5.58377 10.5224 5.45808 11.4999 5.45378C12.4768 5.45808 13.4614 5.5834 14.3806 5.83348C16.5755 4.37427 17.5399 4.67739 17.5399 4.67739C18.1658 6.23074 17.7722 7.37804 17.6528 7.66193C18.3902 8.45196 18.8364 9.45807 18.8364 10.6894C18.8364 15.0213 16.1461 15.9749 13.5853 16.2543C13.998 16.6043 14.3655 17.2909 14.3655 18.343C14.3655 19.852 14.3522 21.0666 14.3522 21.4381C14.3522 21.7382 14.5594 22.0899 15.1421 21.9791C19.7087 20.4861 23 16.2599 23 11.2785C22.9998 5.04962 17.8509 0 11.4999 0Z" fill="white"/>
<path d="M4.3556 16.1933C4.33027 16.2493 4.24039 16.2661 4.1585 16.2278C4.07471 16.1912 4.02805 16.1148 4.05509 16.0586C4.07985 16.0007 4.16993 15.9848 4.25314 16.0235C4.33694 16.0603 4.38473 16.1372 4.3556 16.1933ZM4.8214 16.7029C4.76674 16.7528 4.65953 16.7297 4.58678 16.6507C4.51137 16.5722 4.49728 16.4671 4.55308 16.4164C4.60983 16.3668 4.7138 16.3903 4.78922 16.4687C4.86425 16.5483 4.87891 16.6523 4.8214 16.7029ZM5.27501 17.3523C5.20455 17.4005 5.08915 17.3555 5.01793 17.2552C4.94747 17.1547 4.94747 17.0343 5.01983 16.9863C5.09086 16.9381 5.20455 16.9816 5.27692 17.081C5.347 17.1828 5.347 17.3034 5.27501 17.3523ZM5.89602 17.9801C5.83317 18.0482 5.69873 18.0299 5.60046 17.9371C5.5001 17.8461 5.47211 17.7167 5.53514 17.6487C5.59913 17.5804 5.73415 17.5994 5.83298 17.6917C5.93334 17.7825 5.96324 17.9123 5.89602 17.9801ZM6.75297 18.3444C6.72497 18.4328 6.59586 18.4729 6.46541 18.4352C6.33535 18.3965 6.25022 18.2933 6.27688 18.204C6.30354 18.1149 6.43361 18.0733 6.56482 18.1134C6.69488 18.1519 6.78001 18.2546 6.75297 18.3444ZM7.69428 18.4119C7.69752 18.5049 7.58707 18.5818 7.45052 18.5837C7.31284 18.5869 7.20144 18.5114 7.2001 18.4199C7.2001 18.3259 7.30827 18.2499 7.44576 18.2473C7.5823 18.2449 7.69428 18.3198 7.69428 18.4119ZM8.56989 18.2658C8.58627 18.3564 8.49124 18.4496 8.35546 18.4744C8.22216 18.4987 8.09838 18.4423 8.08124 18.3525C8.06486 18.2595 8.1616 18.1663 8.29491 18.1422C8.43088 18.1192 8.55275 18.1737 8.56989 18.2658Z" fill="white"/>
</svg>
